<svg width="28" height="28" viewBox="0 0 28 28" fill="none" xmlns="http://www.w3.org/2000/svg">
<circle cx="13.6156" cy="13.6151" r="13.3672" transform="rotate(-1.07476 13.6156 13.6151)" fill="black"/>
<circle cx="13.6156" cy="13.6151" r="13.1172" transform="rotate(-1.07476 13.6156 13.6151)" stroke="#2D2D2D" stroke-opacity="0.7" stroke-width="0.5"/>
<path d="M5.15634 17.2047L5.40004 15.7998L7.38969 15.7625C7.53633 15.7598 7.66907 15.7273 7.78793 15.665C7.90665 15.5961 8.00168 15.5077 8.073 15.3996C8.14419 15.2849 8.17835 15.1509 8.17548 14.9976C8.17273 14.851 8.12055 14.7353 8.01894 14.6505C7.924 14.5656 7.77987 14.525 7.58658 14.5286L5.63692 14.5652L5.86268 13.2707L7.47239 13.2405C7.69902 13.2363 7.89465 13.1793 8.05929 13.0695C8.23047 12.9529 8.35776 12.8072 8.44116 12.6322C8.5311 12.4505 8.57419 12.2597 8.57044 12.0597C8.56569 11.8064 8.48578 11.6346 8.33073 11.5441C8.17567 11.4537 7.98816 11.4105 7.7682 11.4146L6.17848 11.4445L6.42105 9.97966L7.97077 9.95059C8.50401 9.94059 8.9421 10.0124 9.28504 10.166C9.62799 10.3196 9.88201 10.5315 10.0471 10.8018C10.2187 11.0653 10.3078 11.367 10.3141 11.7069C10.3206 12.0535 10.2567 12.3781 10.1224 12.6807C9.99468 12.9832 9.80299 13.2501 9.54728 13.4816C9.29825 13.713 8.98841 13.9022 8.61776 14.0492L8.55008 13.6404C8.99138 13.7054 9.3276 13.8558 9.55872 14.0915C9.78973 14.3206 9.90879 14.6251 9.91592 15.005C9.92392 15.4316 9.81428 15.807 9.58699 16.1314C9.36624 16.4489 9.05086 16.6982 8.64085 16.8792C8.23751 17.0602 7.77255 17.1556 7.24597 17.1655L5.15634 17.2047ZM3.92656 17.2277L5.19126 10.0027L6.96095 9.96953L5.69625 17.1945L3.92656 17.2277ZM12.0358 9.87433L13.8054 9.84113L12.5407 17.0661L10.7711 17.0993L12.0358 9.87433ZM18.5205 16.9539L19.7652 9.72932L21.5349 9.69612L20.3002 16.9206L18.5205 16.9539ZM14.0713 17.0374L15.306 9.81298L16.7157 9.78653L19.6765 13.5317L19.3178 15.7388L16.2443 11.8457L16.7151 11.8869L15.8409 17.0042L14.0713 17.0374Z" fill="#00E0C7"/>
<circle cx="22.2227" cy="14.2734" r="1" fill="white"/>
</svg>
