<svg width="28" height="28" viewBox="0 0 28 28" fill="none" xmlns="http://www.w3.org/2000/svg">
<circle cx="13.6156" cy="13.6141" r="13.3672" transform="rotate(-1.07476 13.6156 13.6141)" fill="black"/>
<circle cx="13.6156" cy="13.6141" r="13.1172" transform="rotate(-1.07476 13.6156 13.6141)" stroke="#2D2D2D" stroke-opacity="0.7" stroke-width="0.5"/>
<path d="M5.15683 17.2047L5.40052 15.7998L7.39017 15.7625C7.53681 15.7598 7.66956 15.7273 7.78841 15.665C7.90714 15.5961 8.00217 15.5077 8.07349 15.3996C8.14468 15.2849 8.17884 15.1509 8.17596 14.9976C8.17321 14.851 8.12103 14.7353 8.01943 14.6505C7.92448 14.5656 7.78036 14.525 7.58706 14.5286L5.63741 14.5652L5.86317 13.2707L7.47288 13.2405C7.69951 13.2363 7.89514 13.1793 8.05978 13.0695C8.23095 12.9529 8.35824 12.8072 8.44164 12.6322C8.53158 12.4505 8.57468 12.2597 8.57093 12.0597C8.56618 11.8064 8.48627 11.6346 8.33121 11.5441C8.17616 11.4537 7.98865 11.4105 7.76869 11.4146L6.17897 11.4445L6.42153 9.97966L7.97126 9.95059C8.5045 9.94059 8.94259 10.0124 9.28553 10.166C9.62847 10.3196 9.88249 10.5315 10.0476 10.8018C10.2192 11.0653 10.3082 11.367 10.3146 11.7069C10.3211 12.0535 10.2572 12.3781 10.1228 12.6807C9.99517 12.9832 9.80347 13.2501 9.54777 13.4816C9.29873 13.713 8.98889 13.9022 8.61825 14.0492L8.55057 13.6404C8.99187 13.7054 9.32808 13.8558 9.55921 14.0915C9.79022 14.3206 9.90928 14.6251 9.91641 15.005C9.92441 15.4316 9.81477 15.807 9.58748 16.1314C9.36673 16.4489 9.05135 16.6982 8.64134 16.8792C8.238 17.0602 7.77304 17.1556 7.24646 17.1655L5.15683 17.2047ZM3.92705 17.2277L5.19175 10.0027L6.96144 9.96953L5.69674 17.1945L3.92705 17.2277ZM12.0362 9.87433L13.8059 9.84113L12.5412 17.0661L10.7715 17.0993L12.0362 9.87433ZM18.521 16.9539L19.7657 9.72932L21.5354 9.69612L20.3007 16.9206L18.521 16.9539ZM14.0717 17.0374L15.3065 9.81298L16.7162 9.78653L19.677 13.5317L19.3183 15.7388L16.2447 11.8457L16.7156 11.8869L15.8414 17.0042L14.0717 17.0374Z" fill="#00E0C7"/>
<circle cx="22.2227" cy="14.2734" r="1" fill="white"/>
</svg>
